<svg fill="none" stroke-linecap="round" stroke-linejoin="round" stroke-width="1.35" aria-hidden="true" version="1.1" viewBox="0 0 24 24" xmlns="http://www.w3.org/2000/svg">path stroke="none" d="M0 0h24v24H0z" fill="none" /&gt;
	<g stroke="#fff">
		<path d="m9 5h-2a2 2 0 00-2 2v12a2 2 0 002 2h10a2 2 0 002-2v-12a2 2 0 00-2-2h-2"/>
		<path d="m9 5a2 2 0 012-2h2a2 2 0 012 2 2 2 0 01-2 2h-2a2 2 0 01-2-2"/>
	</g>
	<g stroke="#f00">
		<path d="m9 10.883h.01"/>
		<g stroke-width="1.35">
			<path d="m11.907 10.883h3.6849"/>
			<path d="m11.907 14.073h3.6849"/>
			<path d="m11.907 17.263h3.6849"/>
		</g>
		<path d="m9 14.073h.01"/>
		<path d="m9 17.263h.01"/>
	</g>
</svg>
