<!--
  eelKit Framework
  Copyright (c) 2026 James Elstone
  Licensed under the BSD 3-Clause License
  See LICENSE file for details.
-->
<svg xmlns="http://www.w3.org/2000/svg" viewBox="0 0 24 24" fill="none" stroke="#ffffff" stroke-width="1.35" stroke-linecap="round" stroke-linejoin="round" aria-hidden="true">
  <path stroke="none" d="M0 0h24v24H0z" fill="none"/>
  <path d="M5 6c0 -1.7 3.1 -3 7 -3s7 1.3 7 3s-3.1 3 -7 3s-7 -1.3 -7 -3z"/>
  <path d="M5 6v5c0 1.7 3.1 3 7 3c.7 0 1.4 -.1 2 -.2"/>
  <path d="M5 11v5c0 1.7 3.1 3 7 3c.6 0 1.1 0 1.6 -.1"/>
  <path d="M17 12v6"/>
  <path d="M14.5 15.5L17 18l2.5 -2.5"/>
  <path d="M14 21h6"/>
</svg>
