<?xml version="1.0" encoding="UTF-8" standalone="no"?>
<!--
  Ultra-simplified heraldic emblem icon
  Line-only SVG matching the supplied icon stroke style.
-->

<svg
   viewBox="0 0 18.074539 19.285986"
   fill="none"
   stroke="#ffffff"
   stroke-width="1.35"
   stroke-linecap="round"
   stroke-linejoin="round"
   aria-hidden="true"
   version="1.1"
   id="svg21"
   sodipodi:docname="companies_house.svg"
   width="18.074539"
   height="19.285986"
   inkscape:version="1.4 (86a8ad7, 2024-10-11)"
   xmlns:inkscape="http://www.inkscape.org/namespaces/inkscape"
   xmlns:sodipodi="http://sodipodi.sourceforge.net/DTD/sodipodi-0.dtd"
   xmlns="http://www.w3.org/2000/svg"
   xmlns:svg="http://www.w3.org/2000/svg">
  <defs
     id="defs21" />
  <sodipodi:namedview
     id="namedview21"
     pagecolor="#ffffff"
     bordercolor="#666666"
     borderopacity="1.0"
     inkscape:showpageshadow="2"
     inkscape:pageopacity="0.0"
     inkscape:pagecheckerboard="0"
     inkscape:deskcolor="#d1d1d1"
     showguides="true"
     inkscape:zoom="33.958333"
     inkscape:cx="9.408589"
     inkscape:cy="10.615951"
     inkscape:window-width="1920"
     inkscape:window-height="1017"
     inkscape:window-x="-8"
     inkscape:window-y="-8"
     inkscape:window-maximized="1"
     inkscape:current-layer="svg21">
    <sodipodi:guide
       position="5.9688651,-10.889206"
       orientation="0,-1"
       id="guide21"
       inkscape:locked="false" />
    <sodipodi:guide
       position="9.4142639,-2.6732551"
       orientation="1,0"
       id="guide22"
       inkscape:locked="false" />
    <sodipodi:guide
       position="0.66825183,-4.6168131"
       orientation="1,0"
       id="guide23"
       inkscape:locked="false" />
    <sodipodi:guide
       position="18.071933,-6.3247881"
       orientation="1,0"
       id="guide24"
       inkscape:locked="false" />
  </sodipodi:namedview>
  <!-- base -->
  <path
     d="m 1.39954,18.610985 c 2.8,-0.9 5.2,-0.9 8,0 2.8,-0.9 5.2,-0.9 8,0"
     id="path2"
     style="fill:#000000;fill-opacity:1" />
  <!-- shield -->
  <ellipse
     cx="9.3995399"
     cy="11.610985"
     rx="3"
     ry="4.8000002"
     id="ellipse2"
     style="fill:none;fill-opacity:1;stroke:#ffffff;stroke-opacity:1" />
  <path
     d="M 9.39954,0.849145 V 16.041537"
     id="path3"
     style="fill:#000000;fill-opacity:1;stroke:#ffffff;stroke-width:1.69829;stroke-opacity:1" />
  <path
     d="m 6.39954,11.610985 h 6"
     id="path4"
     style="fill:#000000;fill-opacity:1" />
  <circle
     cx="7.8995399"
     cy="9.910985"
     r="0.34999999"
     id="circle4"
     style="fill:#ffffff;fill-opacity:1;stroke:none;stroke-width:0.15;stroke-dasharray:none" />
  <circle
     cx="10.89954"
     cy="9.910985"
     r="0.34999999"
     id="circle5"
     style="fill:#ffffff;fill-opacity:1;stroke:none;stroke-width:0.15;stroke-dasharray:none" />
  <circle
     cx="7.8995399"
     cy="13.510984"
     r="0.34999999"
     id="circle6"
     style="fill:#ffffff;fill-opacity:1;stroke:none;stroke-width:0.15;stroke-dasharray:none" />
  <circle
     cx="10.89954"
     cy="13.510984"
     r="0.34999999"
     id="circle7"
     style="fill:#ffffff;fill-opacity:1;stroke:none;stroke-width:0.15;stroke-dasharray:none;stroke-opacity:1" />
  <!-- crown -->
  <path
     d="m 7.19954,5.910985 h 4.4"
     id="path7"
     style="fill:#000000;fill-opacity:1" />
  <path
     d="m 7.440644,5.4398194 -0.2999997,-1.6 1.0999997,0.7 1.1,-1.2 1.1,1.2 1.1,-0.7 -0.3,1.6"
     id="path8"
     style="fill:#ffffff;fill-opacity:1;stroke:none" />
  <path
     d="m 8.182621,2.3404329 h 2.227703"
     id="path10"
     style="fill:#000000;fill-opacity:1;stroke-width:2.01495" />
  <!-- lion side -->
  <circle
     cx="2.5995398"
     cy="7.8109846"
     r="1.35"
     id="circle10"
     style="fill:none;fill-opacity:1" />
  <path
     d="m 0.67500001,6.11712 0.3,-1 0.79999999,0.7 0.8,-0.9 0.8,0.9 0.8,-0.7 0.3,1"
     id="path11"
     style="fill:none;fill-opacity:1" />
  <path
     d="m 2.852914,9.081537 c -1.1,1.2 -0.672699,3.088344 0.127301,4.588344"
     id="path12"
     style="fill:none;fill-opacity:1"
     sodipodi:nodetypes="cc" />
  <path
     d="m 3.024693,13.876016 c -1.143405,0.65 -1.764776,1.491104 -1.071165,2.191104"
     id="path13"
     style="fill:#000000;fill-opacity:1"
     sodipodi:nodetypes="cc" />
  <path
     d="m 3.025524,13.905464 c 1.80138,0.767791 0.0021,1.373313 1.314111,2.132208"
     id="path13-0"
     style="fill:#000000;fill-opacity:1"
     sodipodi:nodetypes="cc" />
  <!-- unicorn side -->
  <path
     d="m 14.69954,7.110985 c 0.45,-0.8 1.5,-1.1 2.2,-0.45 0.65,0.6 0.45,1.75 -0.45,2.25 -0.65,0.35 -1.35,0.25 -1.9,-0.2"
     id="path16"
     style="fill:none;fill-opacity:1" />
  <path
     d="m 14.892178,5.9870586 -0.85,-1.55 1.55,1"
     id="path17"
     style="fill:#000000;fill-opacity:1" />
  <path
     d="m 16.39954,9.010985 c 0.95,1.15 0.481595,2.776074 -0.218405,4.276074"
     id="path18"
     style="fill:#000000;fill-opacity:1"
     sodipodi:nodetypes="cc" />
  <path
     d="m 16.068865,13.610985 c 0.9,0.65 0.148773,1.697239 0.776687,2.632822"
     id="path19"
     style="fill:#000000;fill-opacity:1"
     sodipodi:nodetypes="cc" />
  <path
     d="m 16.106288,13.523868 c -0.311469,1.688402 -2.295399,0.637116 -1.814724,2.338343"
     id="path19-9"
     style="fill:#000000;fill-opacity:1"
     sodipodi:nodetypes="cc" />
</svg>
