<!--
  Further simplified heraldic emblem icon
  Minimal line-only SVG matching the user's requested stroke style.
-->
<svg xmlns="http://www.w3.org/2000/svg" viewBox="0 0 24 24" fill="none" stroke="#ffffff" stroke-width="1.35" stroke-linecap="round" stroke-linejoin="round" aria-hidden="true">
  <path stroke="none" d="M0 0h24v24H0z" fill="none"/>

  <!-- bottom line -->
  <path d="M3.2 20.1c3.1 -.9 5.8 -.9 8.8 0c3 -.9 5.7 -.9 8.8 0"/>

  <!-- central shield -->
  <ellipse cx="12" cy="13.2" rx="3.1" ry="5.1"/>
  <path d="M12 8.1v10.2"/>
  <path d="M8.9 13.2h6.2"/>
  <circle cx="10.45" cy="11.2" r=".4"/>
  <circle cx="13.55" cy="11.2" r=".4"/>
  <circle cx="10.45" cy="15.2" r=".4"/>
  <circle cx="13.55" cy="15.2" r=".4"/>

  <!-- top crown -->
  <path d="M9.7 7.4h4.6"/>
  <path d="M10 7.4l-.35 -1.65l1.15 .75l1.2 -1.2l1.2 1.2l1.15 -.75l-.35 1.65"/>
  <path d="M10.3 8h3.4"/>
  <path d="M12 5.15v-1.45"/>
  <path d="M11.55 3.7h.9"/>

  <!-- lion, very simple -->
  <circle cx="5.4" cy="9.2" r="1.4"/>
  <circle cx="5" cy="9" r=".08"/>
  <circle cx="5.85" cy="9" r=".08"/>
  <path d="M5.2 9.55c.25 .25 .5 .25 .75 0"/>
  <path d="M4.35 7.15l.2 -.9l.7 .55l.7 -.8l.7 .8l.7 -.55l.2 .9"/>
  <path d="M4.35 7.15h2.7"/>
  <path d="M5.15 10.55c-1.05 .5 -1.7 1.5 -1.8 2.8v1.6c0 1.3 .6 2.3 1.7 3"/>
  <path d="M6.05 10.7c.95 .55 1.45 1.35 1.7 2.45"/>
  <path d="M7.7 13.15l1.2 -.35"/>
  <path d="M5 17.9l-.95 1"/>
  <path d="M5.9 18l.8 .9"/>
  <path d="M3.15 14.55c-.75 .6 -1.05 1.35 -.85 2.1c.2 .75 .8 1 1.45 .8"/>
  <path d="M2.65 14.75l-.7 -.25"/>

  <!-- unicorn, very simple -->
  <path d="M17.3 8.45c.4 -.75 1.35 -1.1 2.05 -.65c.75 .5 .8 1.5 .2 2.2c-.55 .65 -1.4 .8 -2.25 .45"/>
  <path d="M18.55 7.65l-.7 -1.45l1.45 .95"/>
  <path d="M19.1 7.8l.1 -.95l.6 .7"/>
  <path d="M18.8 9.9c.75 .8 1.2 1.9 1.15 3.1"/>
  <path d="M17.7 10.8c-.9 .55 -1.4 1.45 -1.55 2.55"/>
  <path d="M16.25 12.85l-1.15 -.55"/>
  <path d="M18.55 10.95h1.55"/>
  <path d="M19.25 10.95c.6 1 .95 2.05 .95 3.2v1c0 1.3 -.5 2.3 -1.55 3"/>
  <path d="M18.65 18l1 .9"/>
  <path d="M17.8 17.9l-.85 .95"/>
  <path d="M20.85 14.55c.75 .6 1.05 1.35 .85 2.1c-.2 .75 -.8 1 -1.45 .8"/>
  <path d="M21.35 14.75l.7 -.25"/>
</svg>
