<svg fill="none" stroke-linecap="round" stroke-linejoin="round" stroke-width="1.35" aria-hidden="true" version="1.1" viewBox="0 0 24 24" xmlns="http://www.w3.org/2000/svg">
	<g stroke="#fff">
		<path d="m3.25 20.167c3.2312-3.1938 6.1688-.5375 8.6562 1.0625 2.7688-1.6625 5.8312-4.225 8.8438-1.0625" stroke-width="1.35"/>
		<ellipse cx="11.991" cy="13.117" rx="4.7334" ry="4.6678" stroke-width="1.35"/>
		<path d="m12 8.9454v8.4757" stroke-width="1.3091"/>
		<path d="m9.3012 13.117h5.3975" stroke-width="1.2912"/>
		<g stroke-width="1.35">
			<path d="m8.4865 8.3584-.63062-2.2086 2.072.94653 2.072-1.5775 2.072 1.5775 2.072-.94653-.63062 2.2086"/>
			<path d="m18.873 6.1358c2.275 1.9312.63893 6.1692-.11107 7.6192"/>
			<path d="m18.799 13.742c.85.65.55 1.7625.05 2.4625"/>
			<path d="m5.1864 6.0608c-2.275 1.9312-.77151 6.1692-.021509 7.6192"/>
			<path d="m5.1274 13.756c-.85.65-.46161 1.6741.038388 2.3741"/>
		</g>
	</g>
	<g stroke="#f00">
		<g fill="#fff" stroke-width=".6">
			<circle cx="10.09" cy="11.31" r=".6"/>
			<circle cx="13.96" cy="11.31" r=".6"/>
			<circle cx="10.09" cy="15" r=".6"/>
			<circle cx="13.96" cy="15" r=".6"/>
		</g>
		<path d="m12 4.712v-3.0351" stroke-width="1.35"/>
		<path d="m11.037 2.866h1.926" stroke-width="1.35"/>
	</g>
</svg>
