<?xml version="1.0" encoding="UTF-8" standalone="no"?>
<svg
   width="1200.1699"
   height="940"
   viewBox="0 0 1200.1699 940"
   version="1.1"
   id="svg1"
   sodipodi:docname="companies_house.svg"
   inkscape:version="1.4 (86a8ad7, 2024-10-11)"
   xmlns:inkscape="http://www.inkscape.org/namespaces/inkscape"
   xmlns:sodipodi="http://sodipodi.sourceforge.net/DTD/sodipodi-0.dtd"
   xmlns="http://www.w3.org/2000/svg"
   xmlns:svg="http://www.w3.org/2000/svg">
  <defs
     id="defs1" />
  <sodipodi:namedview
     id="namedview1"
     pagecolor="#ffffff"
     bordercolor="#666666"
     borderopacity="1.0"
     inkscape:showpageshadow="2"
     inkscape:pageopacity="0.0"
     inkscape:pagecheckerboard="0"
     inkscape:deskcolor="#d1d1d1"
     inkscape:zoom="0.64992026"
     inkscape:cx="599.30429"
     inkscape:cy="545.45153"
     inkscape:window-width="1920"
     inkscape:window-height="1017"
     inkscape:window-x="-8"
     inkscape:window-y="-8"
     inkscape:window-maximized="1"
     inkscape:current-layer="svg1" />
  <g
     fill="#000000"
     fill-rule="evenodd"
     stroke="none"
     id="g1"
     style="fill:#ffffff;fill-opacity:1;stroke:#ffffff;stroke-opacity:1"
     transform="translate(-26.940983,-82)">
    <path
       d="m 1094,973.5 h -30 l -1,-1 h -5 l -10,-4 -3.5,-4.5 v -8 l 9,-19 5,-5 1,-4 17,-15 7,-20 3,-13 -25.5,-15.5 -15,-12 -16.5,-17.5 -7,-10 -3.5,-7.5 -6,1 -6,3 -2.5,2.5 -3,7 v 12 l 6,12 v 10 l -2,4 -7.5,6.5 -7,2 -2,2 -15,7 -24,16 -13,12 -2.5,0.5 v 5 l -5.5,6.5 -15,5 h -21 l -14,-3 -7,-3 -5.5,-4.5 -1,-3 1,-9 3,-8 6,-10 7.5,-7.5 3,-1 2.5,-4.5 6.5,-6.5 27,-15 19.5,-12.5 1,-3 -11,-14 -6,-12 -3,-15 1,-15 3,-10 5,-10 7,-10 15.5,-14.5 8.5,-4.5 -22,-21 -13.5,-18.5 -7,2 -15,1 -5,2 -2.5,2.5 v 16 l -6,6 1,1 -1,15 -8.5,8.5 -10,4 -18,1 -8,-2 -8.5,-5.5 -1,-2 1,-50 4,-19 6,-14 5,-7 10.5,-8.5 8,-4 28.5,-9.5 -1,-15 -13.5,-6.5 -8.5,-8.5 -10,-15 -17,-30 -2.5,-2.5 -5.5,7.5 -4,11 -5.5,5.5 -7,3 -5.5,0.5 7,23 3,15 v 6 l 1,1 v 7 l 1,1 v 8 l 1,1 v 50 l -1,1 -1,15 -3,16 -3,9 -2,12 -7,21 -9,21 -9,17 -21,31 -13,15 -17.5,16.5 -28,20 -19,10 -21,8 -21,5 -14,1 -1,1 h -27 l -1,-1 -19,-2 -25,-7 -21,-9 -26,-16 -15,-12 -13.5,-12.5 -22,-26 -17,-27 -13,-27 -11,-33 -6.5,-30.5 -5,6 -7,3 h -5 l -6,-3 -7,3 h -6 l -5,-2 -5.5,-4.5 -3,-4 -4,-10 -8.5,-7.5 -28,-6 -14.5,21.5 -15,16 13.5,8.5 15.5,15.5 8,13 5,16 v 17 l -4,14 -5,10 -12,16 13.5,11.5 18,11 7,-3 h 15 l 9,3 9,6 7.5,9.5 4,9 1,11 -4,11 -6.5,5.5 -6,1 -8,9 -5,2 -8,-1 -3,3 -7,3 h -9 l -7,-3 -7,-7 -3,-1 -14,-12 -9,-6 -13,-8 -29,-14 -8.5,-6.5 -3,-5 v -11 l 5,-10 2,-11 -4,-11 -5.5,-5.5 -6,-3 -6.5,12.5 -7,10 -20.5,21.5 -18,13 -19.5,10.5 3,19 5,12 14.5,0.5 7,2 9,5 8.5,9.5 4,9 v 6 l 1,1 -1,8 -3,7 -4.5,4.5 -4,2 -4,1 -6,-1 -6,5 -6,2 h -7 l -8,-4 -7,4 -12,1 -8,-2 -10,-6 -7,-8 -7,-3 -4.5,-4.5 -5,-8 -8,-23 v -3 l -4,-10 -1,-7 -5,-15 -1,-5 v -13 l 1,-3 6.5,-7.5 13,-5 6.5,-7.5 3,-8 1,-11 1,-1 v -27 l 3,-7 6.5,-5.5 0.5,4.5 -2,6 v 32 l -5,19 -3,5 -6.5,6.5 -6,3 -8,2 -3.5,5.5 v 11 l 17,58 4,8 4.5,4.5 6,2 11,11 10,4 11,-1 5.5,-5.5 1,-6 -6.5,-12.5 h 3 l 4,2 4.5,5.5 2,4 -0.5,10.5 4,2 h 5 l 5,-2 4.5,-5.5 v -9 l -4,-8 -5,-5 0.5,-2.5 6,1 7.5,8.5 2,6 -0.5,10.5 6,-1 3.5,-3.5 2,-6 -1,-11 -4,-7 -5.5,-5.5 -5,-3 -6,-2 h -13 l -18,5 -5,3 -2.5,-0.5 5.5,-6.5 11.5,-6.5 -4,-8 -5,-22 -2.5,-0.5 -1,1 -2,-1 -2.5,-2.5 v -2 l 2.5,-2.5 14,-5 22,-13 13,-10 15.5,-16.5 13,-22 6,-19 1,-20 -2,-10 -4,-8 1,-4 4.5,-0.5 4,4 13,-7 13,-9 10,-8 18.5,-18.5 17,-24 -23.5,-6.5 -13,-6 -12,-9 -4.5,-5.5 v -3 l 1.5,-1.5 2,-1 2,1 11,10 11,6 36,10 27,5 4,2 8.5,7.5 4,6 3,8 6.5,4.5 h 4 l 4,-2 2.5,-3.5 v -11 l -2,-4 0.5,-3.5 5.5,4.5 3,6 v 9 l -2,3 2.5,1.5 h 5 l 4,-2 3.5,-5.5 v -11 l -3,-7 -3,-3 v -2 l 4.5,1.5 4.5,4.5 3,5 0.5,3.5 2.5,-1.5 3,-7 v -9 l -4,-11 -18.5,-18.5 -9,-6 -22,-11 h -2 l -34,-16 -14,-9 -5,4 -4,-1 -14,-14 -17,-10 -42,-15 -15,-10 -8.5,-8.5 -7.5,-10.5 -8.5,13.5 v 6 l 6,27 v 32 l -6,28 -5,13 -10,18 -16,22 -12,14 -11,17 -6,15 -2,8 -1,13 -3,7 -4,6 -10.5,10.5 -6,4 -11,5 -10,2 h -8 l -12,-3 -7,-4 -9.5,-10.5 -4,-9 -2,-10 1,-13 4,-13 10,-17 21,-24 13,-18 6,-16 v -6 l 1,-1 -1,-11 -4,-9 -2.5,-1.5 -5.5,10.5 -10.5,8.5 -13,5 -14,1 -14,-4 -7,-7 -6,-2 -7.5,-7.5 -2,-4 1,-2 1.5,-1.5 h 10 l 6,-3 15,-17 8,-5 7,-2 h 12 l 10,4 7.5,7.5 3,8 7,7 3,5 3,10 v 17 l -3,11 -8,15 -10,13 -14,15 -13,18 -4,9 -3,12 1,14 3,8 4,5 9.5,7.5 7,2 h 12 l 10,-3 9,-5 6.5,-5.5 6,-8 3,-6 2,-16 5,-16 11,-19 20,-25 14,-20 10,-21 6,-22 1,-14 1,-1 v -16 l -1,-1 v -9 l -1,-1 -3,-21 -2,1 -8,12 -4.5,4.5 h -4 l -5,-4 -8.5,-9.5 -6,-9 -6,-14 -3,-12 v -11 l -1,-1 2,-16 -18.5,10.5 -4.5,-4.5 -4,-16 v -15 l 3,-16 7,-16 5,-7 -11.5,-1.5 -8,-4 -3.5,-3.5 v -3 l 11,-10 3,-8 8,-14 5.5,-5.5 8.5,-4.5 -9,-8 -5,-8 -2,-6 1,-15 3,-6 11.5,-10.5 12,-3 15.5,1.5 -1,-7 -20,-36 -9.5,-2.5 -5.5,-5.5 -2,-4 v -9 l 4,-7 7.5,-4.5 12,1 6.5,5.5 2,4 v 9 l -1,1 1.5,1.5 9,2 6,3 2.5,-10.5 -4.5,-1.5 -4.5,-3.5 -4,-8 v -5 l 2,-5 5.5,-5.5 4,-2 h 8 l 6,3 5.5,7.5 v 9 l -2,5 10.5,5.5 4.5,-9.5 7,-22 -9,-8 -2,-5 v -9 l 2,-4 6.5,-6.5 4,-2 11,1 5,3 3.5,4.5 2,4 v 10 l -5,8 19.5,23.5 2.5,-2.5 2,-5 -5,-5 -2,-4 v -9 l 2,-4 4.5,-4.5 5,-2 h 6 l 5,2 4.5,4.5 2,4 v 9 l -5,8 6.5,7.5 9.5,-11.5 -4,-6 -1,-6 2,-7 4.5,-5.5 5,-3 7,-1 8,3 4.5,4.5 3,8 -1,7 -3,5 -7,5 -1,5 v 12 l -1,1 -1,21 -1,1 1,12 8.5,-6.5 11,-4 15,1 5,3 6.5,6.5 4,10 v 8 l -1,5 -4,8 9.5,2.5 6,3 6,4 8.5,8.5 v 4 l -11,9 13.5,8.5 10.5,10.5 5,7 7,14 v 3 l 2,4 -1,5 -2.5,1.5 -15.5,1.5 10,15 7,20 1,22 -3,14 -4.5,2.5 -9,-6 -4.5,-1.5 2,9 v 21 l -6,19 -12.5,20.5 -4,1 -10,-11 -2.5,8.5 -3,5 v 3 l 4,9 3,13 0.5,17.5 4.5,-3.5 15,-37 9,-18 7.5,-9.5 8,-4 h 11 l 10,5 11,12 10.5,-19.5 23,-31 24.5,-23.5 10,-8 18.5,-11.5 -1.5,-1.5 -9,-2 -7,-4 -4.5,-4.5 -2,-4 v -4 l -8.5,-4.5 -4.5,-4.5 -5,-9 v -11 l 6,-11 -12,-31 -13,-27 -2,-2 1,-5 9,-8 -3,-7 v -5 l -1,-1 v -21 l 4,-15 8,-14 11.5,-11.5 12,-7 14,-4 16,-1 1,1 h 9 l 15,3 20,6 10.5,0.5 v -32 l 6,-6 -7,-6 -3,-5 v -3 l -4.5,-2.5 -4.5,-5.5 -2,-4 v -8 l 3,-6 5.5,-5.5 9,-2 4.5,-8.5 -0.5,-1.5 h -3 l -1.5,-1.5 v -4 l 2,-2 4,-10 -3.5,0.5 -8,4 h -4 l -2.5,-2.5 v -36 l 1,-2 1.5,-1.5 h 4 l 11.5,5.5 -8,-15 v -2 l 3.5,-3.5 h 42 l 3.5,2.5 v 5 l -8,13 3.5,-0.5 10,-5 h 3 l 2.5,2.5 v 37 l -2.5,2.5 h -4 l -8,-4 -3.5,-0.5 v 2 l 5,9 v 4 l -2.5,2.5 -2.5,0.5 4,6 v 3 l 11.5,3.5 5.5,5.5 2,5 v 8 l -2,4 -2.5,3.5 -6.5,3.5 -1,5 -10,10 6,5 1,3 -1,30 10.5,-0.5 19,-6 15,-3 19,-1 1,1 13,1 16,7 8,6 7.5,8.5 7,12 5,20 -1,20 -3,12 8,8 1,3 -16,32 -11,28 v 2 l 4,5 2,5 v 10 l -5,10 -3.5,3.5 -9.5,5.5 -2,7 -7.5,7.5 -11.5,4.5 19.5,11.5 15,12 25.5,26.5 17.5,25.5 13.5,-19.5 13.5,-12.5 14,-7 17,-1 10,3 8,5 10.5,10.5 29,34 11.5,10.5 1.5,-1.5 -3,-5 26,-46 5.5,-2.5 7,3 11.5,-20.5 -11.5,-3.5 h -11 l -13,8 -11,5 -5,1 -12,-1 -9,-4 -6.5,-6.5 -2.5,-5.5 -7,-1 -6,-3 -9.5,-9.5 -6,-12 -1,-12 -1,-1 2,-15 5,-11 5,-7 8.5,-6.5 11,-5 24,-16 26.5,-25.5 -16,-16 -5,-12 -1,-8 3.5,-3.5 h 3 l 4,3 12,4 h 15 l 3.5,-1.5 -10,-15 -36,-62 -21,-41 -1,-11 2.5,-3.5 7,-1 6,3 10,8 38.5,39.5 23,26 24.5,30.5 12.5,-1.5 1,-5 11,-23 2.5,-2.5 4,-1 9,6 10.5,11.5 8.5,15.5 h 11 l 16,6 12,8 26,27 11,6 13,1 2.5,3.5 -1,4 -8.5,9.5 -6.5,4.5 15,15 8,15 1,23 -3,12 1,19 3,7 5.5,6.5 11,5 8,1 1.5,4.5 -8.5,8.5 -15,8 -8,2 -18.5,-0.5 4,12 v 22 l -5,17 -7,15 -7.5,9.5 h -3 l -5.5,-5.5 -2.5,-5.5 -1.5,0.5 -4,10 -1,13 4,11 4,4 v 4 l -2.5,2.5 h -14 l -6,-2 -12,-7 -8,-8 -11.5,25.5 -1.5,1.5 -4.5,-0.5 1,22 7,25 6,12 8,12 31,32 12,17 7,14 5,16 1,24 4,6 8.5,7.5 11,4 h 8 l 5,-1 10,-6 4.5,-5.5 4,-9 1,-17 -3,-11 -8,-15 -29,-34 -10,-16 -5,-16 v -15 l 4,-12 10,-12 1,-5 2,-3 5.5,-5.5 5,-3 7,-2 h 12 l 13,6 18,19 5,2 h 9 l 2.5,4.5 -9.5,10.5 -5,2 -6,6 -15,5 -16,-1 -12,-5 -9.5,-7.5 -3,-4 -3.5,-8.5 -5.5,10.5 -1,18 3,10 7,13 28,33 10,15 6,17 1,16 -2,9 -5,10 -4,5 -5.5,4.5 -11,5 -12,1 -9,-2 -12,-7 -5.5,-5.5 -1,7 -8,22 v 13 l 4,10 3.5,4.5 5,3 10,3 5.5,4.5 3,6 v 9 l -9,20 -8,25 -3,16 -6,13 -9.5,5.5 -3.5,-2.5 v -3 l 10,-10 5,-24 8,-24 6,-12 2,-6 v -5 l -2,-4 -3.5,-2.5 -6,-1 -11.5,-7.5 -6,-10 -2,-7 v -15 l 8,-22 3,-14 v -20 l -1,-1 -1,-10 -5,-13 -10,-17 -6,-8 -24,-24 -14,-18 -8,-16 -6,-19 -1,-10 -1,-1 v -23 l -1.5,-1.5 -47,-22 -28,-11 -39,-13 -9.5,14.5 -8,16 -4,12 -2,10 v 21 l 1.5,3.5 4,-1 16,-6 6,-4 4.5,1.5 v 4 l -2.5,2.5 -8,4 -45,15 -3,2 -6,1 -11,6 -6.5,6.5 -6,11 -3,10 -2,17 -1,1 v 8 l 2.5,1.5 20,6 18,2 3.5,-1.5 v -15 l 2,-4 4.5,-4.5 8,-3 35,-4 17,-4 8,-4 10,-8 3.5,1.5 1,4 -6.5,6.5 -8,5 -11,4 -14,2 -2.5,1.5 11,15 13.5,13.5 14,11 19,12 18,9 4,-3 3.5,1.5 1,3 -4,10 v 19 l 5,18 9,18 8,11 15.5,15.5 27,19 10,5 3.5,3.5 -2,13 -8,25 -5.5,6.5 -5,3 -6.5,6.5 1.5,1.5 h 6 l 19,6 17,10 4.5,4.5 1,7 -2,4 -5.5,5.5 z M 640.5,145 l -5,-11 -2,-8 1.5,-2.5 h 4 l 7,4 9,3 0.5,-23.5 -1.5,-0.5 -12,6 -6,1 -2.5,-2.5 v -3 l 9,-16 -0.5,-1.5 h -30 l 9.5,18.5 v 2 l -2.5,2.5 h -4 l -15,-7 -0.5,19.5 1,3 -1,1 7.5,-1.5 9,-5 h 4 l 1.5,4.5 -8,17 z m -10,48 4.5,-1.5 3,-3 3,1 14,-1 4.5,-5.5 v -7 l -5.5,-5.5 -17,1 -1.5,-3.5 1.5,-2.5 4.5,-1.5 -1,-5 -7.5,-6.5 -8,-1 -7,3 -3.5,4.5 -1,5 4,3 v 3 l -1.5,1.5 -2,1 -3,-2 h -10 l -4.5,3.5 -2,7 2,5 5.5,3.5 15,-1 5,4 3,1 z m 288,37 9.5,-4.5 3.5,-5.5 -19.5,-19.5 -8,-7 -4,-2 0.5,5.5 7,13 v 2 l 8,15 z m -281,-24 6.5,-3.5 3.5,-3.5 1,-3 -6.5,-0.5 -9,2 h -14 l -8,-2 -5.5,1.5 6.5,6.5 6,3 h 5 l 1,-1 z m 6,73 1,-61 -10.5,-4.5 h -14 l -7,2 -3.5,2.5 v 58 l 1,1 -1,2 z m -399,-43 5,-5 1,-3 -1,-5 -5.5,-5.5 h -8 l -5.5,7.5 1,7 5.5,4.5 z m 692,25 8.5,-4.5 9.5,-11.5 -17.5,-19.5 -7,7 -8.5,3.5 13,25 z m -612,-13 4,-3 2,-4 v -3 l -1,-3 -3.5,-3.5 -7,-1 -5.5,4.5 -1,6 1,3 3.5,3.5 2,1 z m -39,2 4,-2 2,-4 v -3 l -4.5,-5.5 -4,-1 -5.5,4.5 -1,5 3.5,5.5 z m 342.5,0.5 -5,-1 -2.5,-3.5 v -6 l 4.5,-4.5 h 5 l 3.5,3.5 1,3 -2,6 z M 190.5,324 215,310.5 l 15,-6 21,-6 16,-3 h 6 l 1,-1 h 9 l 1,-1 32,1 3.5,-38.5 -2.5,-1.5 -15,17 h -3 l -14,-14 -6.5,11.5 -4.5,3.5 h -4 l -21.5,-26.5 -3.5,-3.5 -2,1 -1.5,1.5 -9,29 -3,7 -2.5,2.5 h -5 l -17,-9 -1.5,1.5 -3,17 -2.5,2.5 -24,-8 -3.5,1.5 15,29 3,5 z m 304,-4 5,-2 -2,-8 v -16 l 2,-9 8,-14 12.5,-10.5 15,-5 h 20 l 38,9 h 9 l 0.5,-7.5 -1.5,-1.5 -13,-1 -4,-2 -30,-7 h -20 l -12,3 -8,4 -12.5,10.5 -6,9 -4,9 -3,15 v 9 l 3,15 z m 267,0 3,-12 v -16 l -2,-10 -2,-6 -7,-12 -8.5,-8.5 -6,-4 -18,-6 h -21 l -36,9 -12.5,1.5 0.5,8.5 h 9 l 14,-4 h 4 l 8,-3 10,-2 h 7 l 1,-1 15,1 15,6 12.5,11.5 5,9 3,10 v 18 l -2,8 5.5,2.5 z m 192,-29 5.5,-2.5 10.5,-10.5 5,-9 -1,-3 -13.5,-15.5 -9,10 -12.5,7.5 13,22 z m -750,-23 4,-4 -1,-8 -3.5,-2.5 -9,1 -2.5,3.5 1,7 4.5,3.5 z m 321,92 5.5,-1.5 6.5,-6.5 3,-7 v -6 l -6.5,6.5 h -4 l -6.5,-6.5 -2,-4 -1,-4 1,-9 5.5,-7.5 8.5,-3.5 1,-12 6,-10 6.5,-5.5 h 2 l 8.5,8.5 4,7 1.5,7.5 5,-1 7,3 5.5,7.5 1,10 -5,11 -4.5,1.5 -8.5,-4.5 2,6 3.5,4.5 11,6 h 10 l 9,-4 7.5,-7.5 3.5,-7.5 -12,6 h -4 l -2.5,-2.5 v -39 l 1.5,-1.5 h 4 l 11.5,4.5 -2,-2 -5,-11 -0.5,-13.5 -14,-1 -36,-9 h -14 l -15,5 -11.5,10.5 -5,10 -2,16 3,16 12,29 -2.5,3.5 -6,1 -0.5,1.5 6.5,4.5 z m 208,0 3.5,-0.5 6.5,-4.5 -1.5,-1.5 -5,-1 -1.5,-5.5 4,-7 8,-23 1,-12 1,-1 -2,-16 -7,-13 -5.5,-5.5 -5,-3 -13,-4 h -14 l -16,3 -21,6 -14,1 -0.5,10.5 1,2 -6,13 2.5,0.5 8,-4 h 4 l 1.5,1.5 v 39 l -2.5,2.5 h -4 l -12,-6 1.5,5.5 3,4 7.5,6.5 8,3 h 8 l 10,-4 6.5,-7.5 1,-5 -10.5,4.5 -3.5,-3.5 -3,-7 v -10 l 3,-6 3.5,-3.5 6,-3 h 6 L 693.5,295 704,283.5 h 2 l 5.5,4.5 6,9 2,7 v 7 l 6.5,2.5 5.5,5.5 2,4 v 10 l -3,7 -5.5,5.5 h -4 l -7,-7 0.5,9.5 2,4 5.5,5.5 7,3 z m -566,-77 4,-4 1,-3 -1,-5 -3.5,-3.5 -3,-1 -6,1 -2.5,2.5 -2,5 1,4 5.5,4.5 z m 900,264 11,-33 7,-33 1,-17 1,-1 -1,-39 -1,-1 -2,-17 -7,-23 -9,-18 -6,-9 -8.5,-9.5 h -2 l -2.5,-2.5 v -2 l 6,-11 3,-11 v -18 l -2,-9 -2,-5 -8,-12 -7.5,-7.5 -4,-2 -10.5,23.5 -3,9 -1,11 -1,1 v 10 l 2,9 7,12 v 3 l -3.5,2.5 -6,-5 -1,2 -8,6 -10,5 -14,4 h -20 l -1,-1 h -5 l -10,-4 -21,21 -11,9 -21,14 -14,7 -7.5,7.5 -5,10 -2,9 v 8 l 3,12 4,7 7.5,6.5 8,3 h 9 l 8,-2 11,-6 9,-11 h 3 l 2.5,2.5 v 3 l -11.5,12.5 -10,6 -11.5,2.5 4.5,5.5 9,3 h 7 l 7,-2 14,-9 7,-3 h 12 l 21,5 h 19 l 9,-2 9,-4 7,-5 7.5,-7.5 5,-9 v -2 l 1.5,-1.5 h 4 l 1.5,1.5 -1,8 -6,9 -8.5,8.5 -11,7 -12,4 -5,1 h -20 l -1,-1 -6.5,13.5 -6,8 1.5,1.5 25,8 27,11 43,21 2,2 z m -98,-232 15.5,-14.5 12.5,-6.5 -16.5,-19.5 -5.5,8.5 -10.5,10.5 -7.5,4.5 10,17 z M 288,289.5 l -6,-1 -2.5,-4.5 1,-4 4.5,-3.5 4,1 3.5,5.5 -1,3 z m 221.5,103.5 11.5,-6.5 28,-10 31,-7 23,-2 1,-1 h 45 l 1,1 h 11 l 1,1 23,3 30,8 29,13 14.5,-36.5 11,-20 -7.5,-6.5 -10,-4 -8.5,19.5 1.5,2.5 5,1 2.5,2.5 1,2 -3,5 -9.5,7.5 -5,2 h -11 l -9,-5 -8.5,-11.5 -2,-10 1,-5 3.5,-4.5 4,-1 3,1 6,5 2.5,-2.5 1,-8 -2,-4 -3.5,-2.5 h -6 l -6.5,2.5 v -3 l 3,-6 v -10 l -3,-7 -3.5,-3.5 -7.5,11.5 1,15 -1.5,0.5 -7,-6 h -6 l -4.5,3.5 -1,3 v 6 l 1.5,3.5 5,-3 h 7 l 3.5,3.5 1,6 -4,9 -7.5,7.5 -7,4 -8,2 -10,-1 -11,-5 -8.5,-8.5 -4,-7 -3,-10 v -3 l 2.5,-2.5 h 4 l 11,5 2,2 1.5,-0.5 v -24 l -1.5,-0.5 -16,7 -2.5,-1.5 v -4 l 6,-11 2,-5 -0.5,-1.5 -4,-1 -2,1 h -24 l -0.5,1.5 8,16 v 4 l -3.5,1.5 -16,-7 -0.5,24.5 1.5,0.5 11,-6 6,-1 2.5,2.5 -2,10 -7,12 -8.5,7.5 -9,4 -11,1 -12,-4 -10.5,-10.5 -3,-6 v -7 l 4.5,-4.5 h 5 l 6,3 2.5,-7.5 -1,-4 -4.5,-4.5 h -6 l -7,6 -1.5,-0.5 1,-14 -3,-7 -4.5,-5.5 -3.5,3.5 -4,10 1,8 3,7 -13.5,-1.5 -4.5,5.5 v 7 l 2.5,4.5 5,-4 6,-2 4.5,2.5 2,5 -1,11 -4,8 -9.5,8.5 -5,2 h -10 l -9,-4 -8.5,-8.5 v -4 l 2.5,-2.5 6.5,-2.5 -7,-19 -1.5,-1.5 -10,4 -7.5,6.5 13,25 8,19 4,13 z M 218,304.5 l -5,-2 -1.5,-2.5 v -4 l 5.5,-4.5 4,1 2.5,3.5 -1,6 z m 764.5,46.5 14.5,-3.5 9,-5 7.5,-6.5 -3,-10 v -8 l -1,-1 1,-12 2,-5 -0.5,-2.5 h -5 l -17,8 -14,14 -13,6 -15,2 -1,-1 -11,-1 -8.5,-3.5 6,12 7.5,7.5 6,4 6,3 11,3 z m 120,236 -3,-5 -2,-7 v -9 l 4,-15 6,-9 3.5,-3.5 h 2 l 2.5,2.5 5.5,10.5 7.5,-13.5 5,-15 1,-23 -3,-12 -7,-15 1.5,-0.5 5,3 10,3 h 15 l 8,-2 11.5,-6.5 -14.5,-4.5 -11,-6 -10.5,-10.5 -7,-11 2.5,-0.5 10,12 11.5,6.5 -4,-7 -2,-7 v -18 l 3,-11 v -17 l -2,-7 -5,-9 -9.5,-10.5 -16.5,-10.5 0.5,-1.5 6,-1 7,-3 8.5,-7.5 -8.5,-1.5 -12,-7 -30,-30 -17,-8 -11,-1 0.5,18.5 -3,14 -4,10 15,19 10,20 8,26 2,17 1,1 v 11 l 1,1 v 24 l -1,1 v 12 l -1,1 -1,14 -9,36 -10,27 7,7 -1,5 -4,8 9.5,9.5 6,4 8,3 z m -901,-246 21.5,-11.5 33,-11 15,-3 h 8 l 1,-1 h 32 l 4,1 0.5,-12.5 -6.5,-1.5 h -28 l -1,1 -20,2 -24,6 -21,8 -22,12 -1.5,1.5 1,6 4.5,3.5 z m 123,261 5,-8 4,-14 -1,-24 3,2 3,8 1,20 1.5,0.5 13.5,-13.5 10,-19 3,-10 1,-21 -2,-10 -5,-13 1.5,-0.5 1.5,1.5 8,19 2,10 v 9 l -1,1 11.5,10.5 10.5,-19.5 4,-15 -1,-19 -5,-16 -7,-14 -7,-8 v -2 l 12,11 6.5,11.5 6,1 12,7 1.5,-5.5 -1,-23 -3,-10 -6,-12 -8,-11 -12.5,-12.5 -14.5,-8.5 0.5,-1.5 h 3 l 5,2 11,6 8,6 10,-2 h 7 l -1.5,-7.5 -4,-8 -4,-6 -15.5,-14.5 -16,-7 -18.5,-1.5 2.5,-2.5 19,-3 11.5,-7.5 -10.5,-8.5 -8,-3 h -13 l -13,4 -2.5,-0.5 3.5,-3.5 11,-5 4.5,-5.5 4,-11 v -8 l -2,-5 -2.5,-3.5 -7,-4 -15,1 -11.5,8.5 -4,6 -5.5,12.5 -1.5,-0.5 -2,-5 -5.5,-4.5 -18,-1 -1,1 h -10 l -1,1 -13,1 7.5,7.5 2,4 0.5,5.5 h -2 l -8,-9 -6,-3 -3,-1 -13,1 -21,8 -12,6 -2.5,7.5 -0.5,7.5 h -2 l -11,-10 -11,-5 -9,-2 h -8 l -9,3 -5.5,4.5 -4,9 v 8 l 4,10 6.5,6.5 9,4 20,-1 3,1 0.5,1.5 -23.5,4.5 -14,7 -9.5,11.5 -5,13 -8,9 1.5,1.5 9,2 10,-1 6,-3 7,-6 14,-7 11,-3 2.5,0.5 -0.5,1.5 -8,2 -14,8 -19.5,18.5 -6,9 -3,7 -3,9 -1,11 -1,1 1,18 2.5,6.5 23,-17 2.5,-2.5 2,-6 9,-12 3.5,-3.5 3.5,-0.5 -7,9 -5,9 -5,12 -4,15 v 12 l -1,1 1,2 v 9 l 4,14 6,12 5,7 7.5,6.5 12.5,-16.5 15,-24 -4,-12 -1,-12 -1,-1 1,-15 3,-11 1.5,-1.5 -1.5,24.5 1,1 1,11 7,16 9,13 9.5,9.5 7,5 23,10 -3.5,-9.5 v -8 l 1.5,-0.5 4.5,10.5 9.5,11.5 10,3 12,6 z M 338,341.5 h -3 l -1.5,-1.5 1,-6 3,-7 8.5,-8.5 2,-1 4,1 0.5,3.5 -8,7 z m -142,35 h -3 l -7,-7 -5,-3 -13,-3 -2.5,-2.5 1,-3 5.5,-1.5 8,2 6,3 9.5,7.5 2,3 v 3 z m 538.5,53.5 6.5,-2.5 5.5,-5.5 3,-8 -2,-8 -6.5,-6.5 -18,-9 -28,-9 -19,-4 -22,-2 -1,-1 h -15 l -1,-1 -34,1 -1,1 -23,2 -23,5 -23,7 -18,8 -7.5,5.5 -4,9 1,7 3,5 5.5,4.5 5,2 h 2 l 2,-2 16,-7 18,-6 32,-7 h 7 l 9,-2 h 13 l 1,-1 32,1 1,1 h 8 l 1,1 h 6 l 21,4 26,8 z M 336,410.5 h -9 l -4,-2 -5.5,-5.5 -2,-4 -1,-4 1,-8 2.5,-4.5 5,-5 4,-2 h 8 l 6,3 4.5,4.5 3,7 v 8 l -2,5 -2.5,3.5 z m 657,7 h -11 l -4,-2 -6.5,-6.5 -2,-5 v -9 l 2,-5 6.5,-6.5 5,-2 h 10 l 4,2 5.5,5.5 2,4 1,4 -1,9 -2,4 -5.5,5.5 z M 337.5,392 l 3,-3 -1,-4 -1.5,-1.5 h -5 l -2.5,2.5 v 4 l 2.5,2.5 z m 648,6 2,-2 v -4 l -2.5,-3.5 h -4 l -3.5,3.5 v 3 l 3.5,3.5 z M 251,427.5 h -10 l -4,-2 -5.5,-5.5 -3,-8 v -5 l 3,-8 5.5,-5.5 5,-2 h 8 l 5,2 6.5,6.5 2,4 1,7 -2,8 -6.5,6.5 z m 1.5,-18.5 3,-3 v -4 l -3.5,-3.5 h -4 l -2.5,2.5 v 6 l 2.5,2.5 z m 54.5,98.5 h -10 l -1,-1 -11,-1 -16,-8 -13.5,-14.5 -5,-11 -2,-8 v -13 l 2,-9 8,-14 5.5,-5.5 10,-7 8,-4 15,-4 23,1 15,7 8.5,7.5 7,10 2,4 3,14 -2,18 -4,10 -6,9 -12.5,11.5 -8,4 z m 3.5,-5.5 4.5,-0.5 12,-5 8,-6 6.5,-7.5 5,-8 4,-12 v -17 l -5,-14 -7,-9 -6.5,-5.5 -11,-5 -17,-2 -19,4 -17,10 -9.5,10.5 -3,6 -3,17 1,1 1,11 5,11 11.5,12.5 17,8 5,1 z m 242,-52 11.5,-5.5 19,-6 13,-3 12,-1 1,-1 h 9 l 1,-1 h 22 l 1,1 22,2 28,8 13,6 h 8 l 7,-2 6.5,-3.5 3,-3 1,-4 -17.5,-8.5 -18,-6 -20,-5 -19,-2 -1,-1 h -9 l -1,-1 h -34 l -1,1 h -9 l -1,1 -20,2 -37,10 -20.5,9.5 v 3 l 4.5,4.5 6,3 9,2 z m -257.5,29.5 -13,-1 -9.5,-9.5 v -2 l 2.5,-2.5 h 3 l 7,7 3,1 7,-1 6.5,-5.5 2,-5 -1,-10 -3.5,-0.5 -14,-8 -6.5,-6.5 -1,-4 3.5,-4.5 3,-1 8,-1 5,-2 h 5 l 15,-4 5,1 3.5,4.5 v 4 l -6,11 -9,9 1,12 4.5,4.5 7,1 3,-1 4.5,-4.5 1,-5 2.5,-2.5 h 3 l 2.5,2.5 -2,8 -4.5,5.5 -7,4 h -10 l -7,-5 -9,9 z m 599,-40 h -5 l -2.5,-2.5 v -4 l 5.5,-7.5 6,-1 3.5,3.5 v 4 z m -587.5,3.5 8,-9 3,-5 -0.5,-1.5 -30.5,6.5 11.5,8.5 3,1 z m 319,222 V 441 l -11.5,-0.5 -32,6 -15,5 -20,9 -15,9 -20,15 -23.5,23.5 -19,26 -20,39 -12,37 -3,15 v 6 l -1,1 -2,28 3.5,5.5 z m 201,0 -1,-24 -1,-1 -2,-20 -5,-22 -5,-15 -10.5,-5.5 -8.5,-8.5 -5,-13 v -9 l 3,-7 -12,-19 -12,-15 -27.5,-26.5 -15,-11 -26,-14 -22,-8 -12,-3 -18,-2 -1,-1 H 633 L 632.5,665 Z m 73,-55 v -5 l 4,-16 4,-10 9,-16 -1,-3 -27,-29 -13,-16 -8.5,-8.5 -6,-4 -8,-3 h -13 l -6,2 -10,6 -11.5,11.5 -7,10 v 2 l 14.5,13.5 18,12 2.5,-1.5 4,-7 3.5,-3.5 h 3 l 2.5,2.5 -1,2 28,46 10.5,11.5 5,3 z m 155,-14 14,-29 2.5,-7.5 -23,-13 -39,-18 -28,-11 -27,-9 -2.5,0.5 -6,12 -11,17 -3.5,8.5 61,21 34,16 h 2 l 23,12 z m -96.5,-54.5 -10,-1 -4.5,-6.5 1,-8 6.5,-5.5 h 6 l 4,2 3.5,4.5 v 8 z m -1.5,-6.5 2,-2 v -4 l -2.5,-2.5 h -4 l -2.5,2.5 v 5 l 2.5,1.5 z m 30.5,17.5 h -8 l -6.5,-6.5 -1,-4 2,-6 7.5,-5.5 h 4 l 6,3 3.5,6.5 v 4 l -2,4 z m -434,59 -15,-1 -13,-7 -8.5,-9.5 -5,-13 v -14 l 2,-7 4,-7 10.5,-10.5 8,-4 9,-2 12,1 14,7 8.5,9.5 4,8 2,9 -1,12 -6,13 -11.5,10.5 -6,3 z m 160,0 h -11 l -10,-3 -5,-3 -10.5,-10.5 -4,-8 -2,-8 1,-14 6,-13 8.5,-8.5 5,-3 14,-4 11,1 13,6 9.5,9.5 6,14 v 14 l -5,13 -7.5,8.5 -7,5 z m 273.5,-65.5 2,-3 v -3 l -4.5,-3.5 -4,1 -2.5,4.5 1,3 2.5,1.5 z m -160,29 6,-4 2,-8 -16.5,-10.5 -17,-15 -4.5,9.5 v 10 l 3,7 8.5,8.5 4,2 3,1 z m -402,77 2,-24 5,-22 v -6 l -4,-8 -9.5,-10.5 -8,-3 -5,1 -1.5,-1.5 4.5,-3.5 h 10 l 8,5 9.5,12.5 v -3 l 4,-9 -3,-8 -10.5,-11.5 -4,-2 -9.5,-1.5 3.5,-3.5 12,1 5,3 10,12 3.5,-7.5 -1,-6 -8.5,-10.5 -7,-4 h -9 l -7.5,5.5 -10,19 -16,39 -5.5,6.5 -7.5,1.5 v 4 l -2,5 30.5,14.5 14,9 z M 1017,565.5 h -5 l -4,-2 -4.5,-5.5 1,-9 6.5,-5.5 h 8 l 4.5,3.5 2,4 -1,9 z m -461.5,37.5 5.5,-1.5 6,-4 6.5,-7.5 4,-11 -1,-14 -4,-8 -7.5,-7.5 -13,-5 -12,1 -11,6 -7.5,9.5 -3,12 1,9 4,9 8.5,8.5 10,4 z m 159,0 10.5,-4.5 8.5,-9.5 3,-8 v -14 l -4,-9 -9.5,-9.5 -7,-3 -13,-1 -9,3 -10.5,9.5 -5,11 v 12 l 6,13 8.5,7.5 8,3 z m 302,-44 3,-2 v -5 l -2.5,-2.5 h -5 l -2.5,2.5 v 5 l 2.5,2.5 z m 32.5,20.5 -8,-1 -5.5,-6.5 1,-8 6.5,-5.5 h 7 l 6.5,6.5 -1,9 z m -0.5,-6.5 3,-3 -1,-4 -1.5,-1.5 h -5 l -2.5,2.5 v 4 l 2.5,2.5 z m -683,46 2,-8 v -23 l -4.5,-14.5 -6.5,9.5 -6.5,6.5 -8,5 h -4 l -4.5,7.5 7.5,5.5 z m -290,36 6.5,-1.5 8,-4 6.5,-6.5 3,-5 1,-4 -1,-9 -4.5,-5.5 -6,-3 -10,-1 -11,4 -5.5,4.5 -5,7 -8.5,8.5 -9.5,3.5 9.5,4.5 h 7 l 7,-2 0.5,1.5 -4.5,4.5 -3.5,1.5 1.5,1.5 4,1 z m 1118,0 3.5,-0.5 1.5,-1.5 -3.5,-1.5 -4.5,-4.5 0.5,-1.5 7,2 h 8 l 8.5,-4.5 -10.5,-4.5 -15,-17 -9,-5 -11,-1 -10,4 -2.5,2.5 -3,6 v 6 l 4,9 5.5,5.5 9,5 7,2 z m -568,252 V 673 l -185.5,-0.5 0.5,18.5 -4,9 -3,3 v 8 l 7,33 12,34 11,22 21,32 26.5,28.5 15,12 20,13 21,10 24,8 16,3 h 8 l 1,1 z m 19,0 13.5,-1.5 17,-4 26,-10 13,-7 14,-9 20,-16 24.5,-26.5 13,-18 10,-17 14,-31 7,-21 6,-26 2,-20 1,-1 v -10 l 1,-1 -0.5,-15.5 -193.5,0.5 v 234 z m 223,-160 7.5,-1.5 8.5,-5.5 1,-2 v -10 l -22.5,-3.5 -13,-4 -3,-2 -0.5,8.5 -1,1 v 15 l 3.5,2.5 8,2 z m -318.5,54.5 -9,-1 -13,-6 -11.5,-12.5 -4,-11 v -15 l 5,-12 9.5,-10.5 15,-7 18,1 7,3 7,5 7.5,9.5 5,15 -1,13 -8,15 -4.5,4.5 -12,7 -10,1 z m 158,0 -1,-1 -10,-1 -10,-5 -8.5,-8.5 -6,-13 -1,-14 2,-8 4,-8 7.5,-8.5 13,-7 17,-1 13,5 10.5,9.5 5,9 2,7 v 13 l -1,5 -5,10 -8.5,8.5 -11,6 -11,1 z M 360.5,919 l 5.5,-1.5 3.5,-3.5 1,-3 v -12 l -2,-4 0.5,-3.5 6.5,6.5 2,9 v 5 l -1,1 5.5,0.5 4.5,-3.5 3,-6 v -10 l -4,-9 -5,-5 0.5,-1.5 9.5,5.5 4,7 2.5,11.5 5.5,-5.5 1,-11 -2,-6 -5,-8 -9.5,-7.5 -5,-2 -11,-1 -8,2 -3,2 h -3 l -25,-16 -10.5,-8.5 -2,-4 1,-6 11,-14 7,-15 2,-9 v -14 l -4,-13 -8,-13 -12.5,-12.5 -12,-8 -4,-1 -17,14 -12,8 -13.5,6.5 3,12 v 11 l -5,22 9.5,5.5 5.5,5.5 5,11 v 13 l -2,7 -4,7 v 8 l 6.5,6.5 4,1 2,2 23,11 15,9 14,10 6,6 5,2 8,8 z m 192,-126 12.5,-4.5 6.5,-6.5 5,-9 1,-15 -1,-4 -6,-10 -9.5,-7.5 -6,-2 h -14 l -9,4 -8.5,8.5 -4,9 v 6 l -1,1 1,8 3,8 7.5,8.5 7,4 7,2 z m 160,0 10.5,-3.5 7.5,-6.5 6,-12 v -14 l -5,-11 -9.5,-8.5 -8,-3 h -13 l -11,5 -8.5,9.5 -3,9 v 12 l 4,10 9.5,9.5 11,4 z m 220,115 17.5,-15.5 15,-10 31,-15 3.5,-3.5 v -9 l -6,-11 v -5 l -1,-1 1,-9 3,-7 6.5,-6.5 7,-4 5.5,-1.5 -5,-13 -1,-11 -1,-1 v -14 l 2,-7 -25.5,-12.5 -15,-11 -16,10 -8.5,8.5 -6,8 -6,12 -2,8 -1,11 1,1 1,11 7,15 10,12 1,6 -2,5 -9.5,7.5 -36,20 -7.5,6.5 20.5,10.5 z m -20,15 11.5,-2.5 2.5,-2.5 v -3 l -2,-4 -10.5,-10.5 -6,-4 -13,-6 -4,-1 -5,1 -6.5,8.5 -4,8 -2,10 10.5,4.5 10,1 1,1 z m 182,42 8.5,-1.5 4,-2 1.5,-4.5 -3.5,-3.5 -12,-7 -19,-6 -12,-1 -3.5,3.5 -6,13 v 6 l 6.5,2.5 h 5 l 1,1 z M 659,1021.5 h -52 l -1,-1 h -10 l -1,-1 h -8 l -14,-3 h -6 l -36,-8 -45,-14 -7,-1 -27,-8 -42,-8 -23,-2 -1,-1 h -11 l -1,-1 h -58 l -1,1 h -11 l -1,1 h -9 l -15,3 h -6 l -1,1 -27,4 -28,7 -42,14 -19,9 h -4 l -2.5,-2.5 v -2 l 3.5,-3.5 21,-9 42,-14 44,-10 26,-3 1,-1 h 7 l 1,-1 20,-1 1,-1 h 57 l 1,1 h 12 l 1,1 h 9 l 1,1 20,2 31,6 13,4 h 4 l 4,2 45,12 7,3 h 3 l 7,3 20,4 9,3 22,3 1,1 20,1 1,1 h 17 l 1,1 52,-2 1,-1 h 7 l 18,-4 h 5 l 36,-9 58,-18 46,-10 29,-3 1,-1 h 11 l 1,-1 h 53 l 1,1 h 11 l 1,1 h 9 l 1,1 21,2 47,10 39,12 29,12 5.5,3.5 v 4 l -1.5,1.5 h -5 l -24,-11 -33,-11 -31,-8 -32,-5 -1,-1 -35,-3 -1,-1 h -55 l -1,1 h -10 l -1,1 -22,2 -32,6 -102,29 -31,6 -15,1 -1,1 h -11 z"
       id="path1"
       style="fill:#ffffff;fill-opacity:1;stroke:#ffffff;stroke-opacity:1" />
  </g>
</svg>
