<svg fill="none" stroke="#ffffff" stroke-linecap="round" stroke-linejoin="round" stroke-width="1.35" aria-hidden="true" version="1.1" viewBox="0 0 24 24" xmlns="http://www.w3.org/2000/svg">
	<path d="M0 0h24v24H0z" fill="none" stroke="none"/>
	<path d="m5 3h14v15.5l-1.4-.9-1.4.9-1.4-.9-1.4.9-1.4-.9-1.4.9-1.4-.9-1.4.9-1.4-.9-1.4.9v-15.5z"/>
	<path d="m7.1463 5.0422h.01"/>
	<path d="m9.2878 5.0422h7.0162" stroke-width="1.4848"/>
	<path d="m7.1463 7.7422h.01"/>
	<path d="m9.1042 7.7422h4.6885" stroke-width="1.3073"/>
	<path d="m7.1463 10.442h.01"/>
	<path d="m8.9437 10.442h2.9394" stroke-width="1.1294"/>
	<path d="m7.1463 13.142h.01"/>
	<path d="m18.079 3.7978-11.886 12.937" stroke-width="1.6766"/>
	<path transform="scale(1.03 .97087)" d="m16.099 13.196q-.0096.0626-.04816.12521-.03371.0626-.0915.11076t-.13484.07705q-.07223.02889-.15892.02889h-1.6469l-.0915.79458q-.03852.30338-.13965.54416-.10113.23597-.28412.44304.23597-.05297.46712-.08187.23596-.03371.46712-.03371h2.4945l-.07705.57788q-.01445.10594-.07223.21189-.05779.10594-.14928.19262-.08668.08668-.20707.14447-.12039.05297-.25523.05297h-4.6037l.11558-.8668q.32746-.06742.49601-.25041.17336-.18781.2167-.54898l.14447-1.1798h-.70308l.07223-.56343q.0096-.0626.04334-.12039.03852-.0626.09631-.11076t.13002-.07705q.07705-.03371.16373-.03371h.3082l.13002-1.0643q.05779-.45748.26004-.86681.20707-.41414.54417-.72234.34191-.31302.80902-.49601.46712-.18299 1.045-.18299.42378 0 .74161.096312.31783.096312.5538.26486.23596.16855.39488.40933.15892.23597.26486.51527l-.62602.3708q-.08187.05297-.16855.07224-.08668.01445-.16855.01445-.22152 0-.36599-.17336-.08668-.10594-.16373-.18299-.07223-.07705-.15892-.12521-.08187-.04816-.19262-.06742-.10594-.02408-.25523-.02408-.41414 0-.69827.28412-.27931.27931-.34191.80421l-.13002 1.0739h2.0418l-.06742.56343z" fill="#f00" stroke="none" aria-label="£"/>
</svg>
