<svg fill="none" stroke="#ffffff" stroke-linecap="round" stroke-linejoin="round" stroke-width="1.35" aria-hidden="true" version="1.1" viewBox="0 0 24 24" xmlns="http://www.w3.org/2000/svg">
	<path d="M0 0h24v24H0z" fill="none" stroke="none"/>
	<path d="m10.467 21c-2.0908.058896-4.4675 0-4.4675 0-.53 0-1.039-.211-1.414-.586s-.586-.884-.586-1.414v-10c0-.53.211-1.039.586-1.414s.884-.586 1.414-.586h2m12 3.12v-1.12c0-.53-.211-1.039-.586-1.414s-.884-.586-1.414-.586h-2"/>
	<path d="m16 10v-6c0-.53-.211-1.039-.586-1.414s-.884-.586-1.414-.586h-4c-.53 0-1.039.211-1.414.586s-.586.884-.586 1.414v6m8 0h-8m8 0h1m-9 0h-1"/>
	<path d="m8 14v.01"/>
	<path d="m8 17v.01"/>
	<path d="m12 13.99v.01"/>
	<path d="m12 17v.01"/>
	<g stroke-width="1.2086">
		<path d="m20.106 14.775a1.7723 1.8089 0 10-3.5446 0v4.5223a1.7723 1.8089 0 01-1.7723 1.8089h5.3169"/>
		<path d="m14.789 17.488h3.5446"/>
		<path d="m10.2 7.2233h3.5446"/>
		<path d="m10.266 4.7914h3.5446"/>
	</g>
</svg>
