<svg fill="none" stroke-linecap="round" stroke-linejoin="round" aria-hidden="true" version="1.1" viewBox="0 0 24 24" xmlns="http://www.w3.org/2000/svg">
	<g stroke="#fff" stroke-width="1.3501">
		<path d="m12.244 16.309c.42828 2.0201 1.2558 3.946 2.4459 5.6601"/>
		<path d="m17.189 16.183c.35672.87039.82441 1.6974 1.3958 2.4593" fill="none"/>
		<path d="m7.4444 10.844c0-2.9299 2.1672-4.4149 4.3642-4.4552" fill="none"/>
		<path d="m19.573 6.3577a8.912 8.912 0 011.2254 5.57v1.114a6.684 6.684 0 00.8912 3.342"/>
		<path d="m7.4301 15.27a20.052 20.052 0 002.0052 6.684"/>
		<path d="m3.9767 19.726a24.508 24.508 0 01-1.0026-7.798v-1.114a8.912 8.912 0 0113.368-7.7423"/>
	</g>
	<g stroke="#4a0" stroke-width="1.8">
		<path d="m11.998 6.3672c-1.6166 1.0294-2.6114 2.9046-2.6172 4.9336.00974 2.1401 1.1184 4.097 2.877 5.0781-.24348-1.096-.37109-2.2151-.37109-3.3379v-2.1202c0-1.1227.12761 4.3621.37109 5.4581 1.5715.88299 3.4465.86102 5-.05859-.60011-1.3869-.91177-2.8814-.91602-4.3926v-1.1133c-.004-2.4144-1.9301-4.3864-4.3438-4.4473z"/>
		<path d="m23.107 20.395-4.1833-4.5244"/>
		<path d="m14.693 5.5527a5.3127 5.7458 0 00-2.6953.81445 4.456 4.456 0 014.3438 4.4473v1.1133a11.14 11.14 0 00.91602 4.3926 5.3127 5.7458 0 002.748-5.0195 5.3127 5.7458 0 00-5.3125-5.748z"/>
	</g>
</svg>
