<svg fill="none" stroke="#ffffff" stroke-linecap="round" stroke-linejoin="round" stroke-width="1.35" aria-hidden="true" version="1.1" viewBox="0 0 24 24" xmlns="http://www.w3.org/2000/svg">
	<path d="M0 0h24v24H0z" fill="none" stroke="none"/>
	<path d="m2.9118 4.7466c2.8237-1.5295 5.6474 1.1765 8.4711-.35296 2.8237-1.5295 5.7651.94123 10.354-.47062v11.412c-4.5885 1.4119-7.4122-1.0589-10.354.47062-2.9414 1.5295-5.6474-1.1765-8.4711.35296z" stroke-width="1.6"/>
	<path d="m18.801 8.17a1.2948 1.3215 0 10-2.5896 0v3.3039a1.2948 1.3215 0 01-1.2948 1.3215h3.8844" stroke-width="1"/>
	<path d="m14.916 10.152h2.5896" stroke-width=".98628"/>
	<path d="M0 0h24v24H0z" fill="none" stroke="none"/>
	<g stroke="#f00" stroke-width="1.6">
		<path d="m6.6241 11.923c.036762-6.8184 5.0078-4.9337 5.0446 1.8847v8.5918" fill="none"/>
		<path d="m11.544 22.528 3.3571-3.681" fill="#f00" stroke-linecap="butt" stroke-linejoin="miter"/>
		<path d="m11.824 22.556-3.3571-3.681" fill="#f00" stroke-linecap="butt" stroke-linejoin="miter"/>
	</g>
</svg>
