<svg fill="none" stroke="#ffffff" stroke-linecap="round" stroke-linejoin="round" stroke-width="1.35" aria-hidden="true" version="1.1" viewBox="0 0 24 24" xmlns="http://www.w3.org/2000/svg">
	<defs>
		<marker id="elstone-a" overflow="visible" markerHeight="0.7" markerUnits="userSpaceOnUse" markerWidth="0.7" orient="auto" preserveAspectRatio="xMidYMid" viewBox="0 0 1 1">
			<path transform="scale(.5)" d="m5 0c0 2.76-2.24 5-5 5s-5-2.24-5-5 2.3-5 5-5c2.76 0 5 2.24 5 5z" fill="context-stroke" fill-rule="evenodd" stroke="none"/>
		</marker>
	</defs>
	<g transform="translate(-.13252 -.09714)" fill="none" stroke="#fff" stroke-width="1.4355">
		<path d="m6.816 3.5924h10.633a2.1266 2.1266 0 012.1266 2.1266v13.823a1.0633 1.0633 0 01-1.5418.94634l-1.6481-.84001-1.6481.84001a1.0633 1.0633 0 01-.95698 0l-1.6481-.84001-1.6481.84001a1.0633 1.0633 0 01-.95698 0l-1.6481-.84001-1.6481.84001a1.0633 1.0633 0 01-1.5418-.94634v-13.823a2.1266 2.1266 0 012.1266-2.1266z"/>
		<path d="m7.8301 11.461h8.636"/>
		<path d="m7.8301 14.135h8.636"/>
		<path d="m7.7981 16.904h5.1529"/>
		<path d="m15.913 3.9681v3.1899" marker-end="url(#elstone-a)"/>
	</g>
</svg>
