<!--
  EEL Accounts
  Copyright (c) 2026 James Elstone
  Licensed under the GNU Affero General Public License v3.0 (AGPLv3)
  See LICENSE file for details.
-->
<svg xmlns="http://www.w3.org/2000/svg" viewBox="0 0 24 24" fill="none" stroke="#ffffff" stroke-width="1.35" stroke-linecap="round" stroke-linejoin="round" aria-hidden="true">
  <path stroke="none" d="M0 0h24v24H0z" fill="none"/>
  <path d="M7 4h10a2 2 0 0 1 2 2v13a1 1 0 0 1 -1.45 .89L16 19.1l-1.55 .79a1 1 0 0 1 -.9 0L12 19.1l-1.55 .79a1 1 0 0 1 -.9 0L8 19.1l-1.55 .79A1 1 0 0 1 5 19V6a2 2 0 0 1 2 -2z"/>
  <path d="M9 8h6"/>
  <path d="M9 11h6"/>
  <path d="M9 14h4"/>
  <path d="M16 4v3"/>
</svg>
