<!--
  EEL Accounts
  Copyright (c) 2026 James Elstone
  Licensed under the GNU Affero General Public License v3.0 (AGPLv3)
  See LICENSE file for details.
-->
<svg xmlns="http://www.w3.org/2000/svg" viewBox="0 0 24 24" fill="none" stroke="#ffffff" stroke-width="1.35" stroke-linecap="round" stroke-linejoin="round" aria-hidden="true">
  <path stroke="none" d="M0 0h24v24H0z" fill="none"/>
  <path d="M5 3h14v15.5l-1.4 -.9l-1.4 .9l-1.4 -.9l-1.4 .9l-1.4 -.9l-1.4 .9l-1.4 -.9l-1.4 .9l-1.4 -.9l-1.4 .9V3z"/>
  <path d="M8 6h.01"/>
  <path d="M10 6h5.8"/>
  <path d="M8 8.7h.01"/>
  <path d="M10 8.7h5"/>
  <path d="M8 11.4h.01"/>
  <path d="M10 11.4h4.2"/>
  <path d="M8 14.1h.01"/>
  <path d="M10 14.1h2.7"/>
  <path d="M16.2 5.8l-8.6 11.2"/>
  <text x="15.8" y="16.5" fill="#ffffff" stroke="none" font-family="Arial, sans-serif" font-size="5.6" font-weight="700" text-anchor="middle">£</text>
</svg>
