<!--
  EEL Accounts
  Copyright (c) 2026 James Elstone
  Licensed under the GNU Affero General Public License v3.0 (AGPLv3)
  See LICENSE file for details.
-->
<svg xmlns="http://www.w3.org/2000/svg" viewBox="0 0 24 24" fill="none" stroke="#ffffff" stroke-width="1.35" stroke-linecap="round" stroke-linejoin="round" aria-hidden="true">
  <path stroke="none" d="M0 0h24v24H0z" fill="none"/>
  <path d="M5 3h14v15.5l-1.4 -.9l-1.4 .9l-1.4 -.9l-1.4 .9l-1.4 -.9l-1.4 .9l-1.4 -.9l-1.4 .9l-1.4 -.9l-1.4 .9V3z"/>
  <path d="M8 6h.01"/>
  <path d="M10 6h5.8"/>
  <path d="M8 8.7h.01"/>
  <path d="M10 8.7h5"/>
  <path d="M8 11.4h.01"/>
  <path d="M10 11.4h4.2"/>
  <path d="M8 14.1h.01"/>
  <path d="M10 14.1h2.7"/>
  <path d="M16.2 5.8l-8.6 11.2"/>
  <rect x="14" y="12.5" width="3.5" height="3.5" rx=".4"/>
  <path d="M14.9 13.4l1.7 1.7"/>
  <path d="M16.6 13.4l-1.7 1.7"/>
</svg>
