<?xml version="1.0" encoding="UTF-8" standalone="no"?>
<svg
   width="24"
   height="24"
   viewBox="0 0 24 24"
   fill="none"
   stroke="currentColor"
   stroke-width="2"
   stroke-linecap="round"
   stroke-linejoin="round"
   version="1.1"
   id="svg12"
   sodipodi:docname="transmit.svg"
   inkscape:version="1.4 (86a8ad7, 2024-10-11)"
   xmlns:inkscape="http://www.inkscape.org/namespaces/inkscape"
   xmlns:sodipodi="http://sodipodi.sourceforge.net/DTD/sodipodi-0.dtd"
   xmlns="http://www.w3.org/2000/svg"
   xmlns:svg="http://www.w3.org/2000/svg">
  <defs
     id="defs12" />
  <sodipodi:namedview
     id="namedview12"
     pagecolor="#ffffff"
     bordercolor="#666666"
     borderopacity="1.0"
     inkscape:showpageshadow="2"
     inkscape:pageopacity="0.0"
     inkscape:pagecheckerboard="0"
     inkscape:deskcolor="#d1d1d1"
     showgrid="false"
     inkscape:zoom="33.958333"
     inkscape:cx="13.546012"
     inkscape:cy="12.176687"
     inkscape:window-width="1920"
     inkscape:window-height="1017"
     inkscape:window-x="1912"
     inkscape:window-y="576"
     inkscape:window-maximized="1"
     inkscape:current-layer="svg12" />
  <g
     id="g14"
     transform="translate(1.0716737,-1.5777418)"
     style="stroke-width:1.35;stroke-dasharray:none;stroke:#ffffff">
    <g
       id="g12"
       style="stroke:#ffffff;stroke-width:2.13500476;stroke-dasharray:none"
       transform="matrix(0,0.63231709,-0.63231709,0,16.384322,0.15902317)">
      <path
         d="m 12,18 h 0.01"
         id="path2"
         style="stroke:#ffffff;stroke-width:2.13500476;stroke-dasharray:none" />
      <path
         d="m 9.172,15.172 a 4,4 0 0 1 5.656,0"
         id="path3"
         style="stroke:#ffffff;stroke-width:2.13500476;stroke-dasharray:none" />
      <path
         d="m 6.343,12.343 a 8,8 0 0 1 11.314,0"
         id="path4"
         style="stroke:#ffffff;stroke-width:2.13500476;stroke-dasharray:none" />
      <path
         d="m 3.515,9.515 c 4.686,-4.687 12.284,-4.687 17,0"
         id="path5"
         style="stroke:#ffffff;stroke-width:2.13500476;stroke-dasharray:none" />
    </g>
  </g>
  <path
     d="m 6.0773022,19.228475 2.6298952,2.081542 c 0.070951,0.06508 0.152038,0.02705 0.2063373,-0.09803 a 0.19837336,0.46312846 0 0 0 0.048507,-0.483411 L 6.0773022,6.1290391 3.1922004,20.728572 c -0.025339,0.169025 -0.00615,0.358333 0.04887,0.483411 0.054299,0.125079 0.1353861,0.163109 0.2063373,0.09803 l 2.6298948,-2.081539"
     id="path7"
     style="stroke:#ffffff;stroke-width:1.35;stroke-dasharray:none" />
  <g
     id="g13"
     transform="translate(7.8859998,4.3374977)"
     style="stroke:#ffffff;stroke-width:1.35;stroke-dasharray:none">
    <path
       d="M 14,12 H 4"
       id="path9"
       style="stroke:#ffffff;stroke-width:1.35;stroke-dasharray:none" />
    <path
       d="m 14,12 -4,4"
       id="path10"
       style="stroke:#ffffff;stroke-width:1.35;stroke-dasharray:none" />
    <path
       d="M 14,12 10,8"
       id="path11"
       style="stroke:#ffffff;stroke-width:1.35;stroke-dasharray:none" />
  </g>
</svg>
