<!--
  EEL Accounts
  Copyright (c) 2026 James Elstone
  Licensed under the GNU Affero General Public License v3.0 (AGPLv3)
  See LICENSE file for details.
-->
<svg xmlns="http://www.w3.org/2000/svg" viewBox="0 0 24 24" fill="none" stroke="#ffffff" stroke-width="1.35" stroke-linecap="round" stroke-linejoin="round" aria-hidden="true">
  <path stroke="none" d="M0 0h24v24H0z" fill="none"/>
  <path d="M5 17a2 2 0 1 0 4 0a2 2 0 1 0 -4 0"/>
  <path d="M15 17a2 2 0 1 0 4 0a2 2 0 1 0 -4 0"/>
  <path d="M5 17h-2V6a1 1 0 0 1 1 -1h9v12"/>
  <path d="M9 17h6"/>
  <path d="M19 17h2v-6h-8"/>
  <path d="M13 6h5l3 5"/>
</svg>
