<!--
  EEL Accounts
  Copyright (c) 2026 James Elstone
  Licensed under the GNU Affero General Public License v3.0 (AGPLv3)
  See LICENSE file for details.
-->
<svg xmlns="http://www.w3.org/2000/svg" viewBox="0 0 24 24" fill="none" stroke="#ffffff" stroke-width="1.35" stroke-linecap="round" stroke-linejoin="round" aria-hidden="true">
  <path stroke="none" d="M0 0h24v24H0z" fill="none"/>
  <path d="M3.5 12.5h9"/>
  <path d="M3.5 12.5V9.5A1.5 1.5 0 0 1 5 8h6.4a2 2 0 0 1 1.7 .94l1.9 3.06v2.1"/>
  <path d="M5.8 8v4.5"/>
  <circle cx="6.6" cy="14.8" r="1.25"/>
  <circle cx="12.6" cy="14.8" r="1.25"/>
  <path d="M6 16h15"/>
  <path d="M7.5 16l1.45 -3.35A2 2 0 0 1 10.8 11.5h4.5a2 2 0 0 1 1.65 .87L19.5 16v2a1 1 0 0 1 -1 1h-1"/>
  <path d="M6 16v2a1 1 0 0 0 1 1h1"/>
  <path d="M10 16l.9 -2.2h4.6l1.4 2.2"/>
  <circle cx="9.6" cy="19" r="1.55"/>
  <circle cx="16.6" cy="19" r="1.55"/>
  <path d="M11.2 19h3.8"/>
</svg>
