<!--
  EEL Accounts
  Copyright (c) 2026 James Elstone
  Licensed under the GNU Affero General Public License v3.0 (AGPLv3)
  See LICENSE file for details.
-->
<svg xmlns="http://www.w3.org/2000/svg" viewBox="0 0 24 24" fill="none" stroke="#ffffff" stroke-width="1.35" stroke-linecap="round" stroke-linejoin="round" aria-hidden="true">
  <path stroke="none" d="M0 0h24v24H0z" fill="none"/>
  <path d="M3.5 16h17"/>
  <path d="M4.5 16V9a2 2 0 0 1 2 -2h8.1a2 2 0 0 1 1.7 .95L20.5 14v3a1 1 0 0 1 -1 1h-1.2"/>
  <path d="M4.5 16v1a1 1 0 0 0 1 1h1.2"/>
  <path d="M7.5 7v9"/>
  <path d="M7.5 10.5h8.7"/>
  <path d="M15.5 10.5l2.6 3.5"/>
  <circle cx="8.2" cy="18" r="1.55"/>
  <circle cx="16.8" cy="18" r="1.55"/>
  <path d="M9.8 18h5.4"/>
</svg>
