<svg fill="none" stroke="#ffffff" stroke-linecap="round" stroke-linejoin="round" stroke-width="1.35" aria-hidden="true" version="1.1" viewBox="0 0 24 24" xmlns="http://www.w3.org/2000/svg">
	<path d="M0 0h24v24H0z" fill="none" stroke="none"/>
	<rect x="4" y="5" width="16" height="15" rx="2"/>
	<path d="m16 3v4"/>
	<path d="m8 3v4"/>
	<path d="m4 11h16"/>
	<path transform="scale(1.0491 .9532)" d="m9.9741 16.071q.40377.181.6161.49775.21233.31327.21233.65438 0 .5256-.42813.92936-.42465.40029-1.0651.40029-.37592 0-.77969-.16012-.40377-.16012-.56388-.32719-.052212-.05569-.052212-.11835 0-.05569.038289-.09746.041769-.04177.097461-.04177t.12531.05221q.53952.40029 1.1417.40029.50819 0 .84931-.31675.3446-.32023.3446-.71008 0-.26106-.17056-.51167-.16708-.25062-.48383-.39333-.31675-.14619-.64046-.14619-.10442 0-.14967-.03829-.04525-.04177-.04525-.1079 0-.06265.041769-.10442.04525-.04177.13227-.04177l.25062.0035q.39333 0 .64742-.24017.25758-.24017.25758-.55692 0-.32719-.26802-.57781-.26802-.25062-.69963-.25062-.30283 0-.55692.10442t-.40725.28542q-.055692.06962-.087019.08702-.027846.01392-.066135.01392-.059173 0-.10094-.03829-.041769-.04177-.041769-.09746 0-.13923.30283-.35156.42117-.29587.95721-.29587.55344 0 .90848.33415.35504.33067.35504.79013 0 .29238-.17056.55344-.17056.26106-.50123.41769zm5.0193-.16708v.724q0 .94329-.44902 1.4932-.35156.43162-.8876.43162-.25758 0-.48731-.10442-.22625-.10094-.38636-.28542-.10094-.11487-.22277-.36896-.11835-.2541-.17056-.46642-.080058-.29935-.080058-.69963v-.724q0-.94677.44902-1.4967.35156-.43162.8876-.43162.26106 0 .48731.10442.22625.10094.38636.28542.10442.11835.22277.37244t.17404.46294q.07658.29935.07658.70312zm-.29238.03829q0-.41421-.11835-.76925-.11487-.35852-.26106-.57085-.08702-.12183-.22625-.20885-.1984-.12183-.44554-.12183-.49079 0-.76925.50123-.27846.50123-.27846 1.1695v.64394q0 .41421.11487.77273.11835.35852.26802.57084.08354.11835.22277.20537.1984.12531.44902.12531.48731 0 .76577-.50123.27846-.50471.27846-1.173z" stroke-width="1.1317" style="font-variant-ligatures:none" aria-label="30"/>
</svg>
